<svg width="33" height="32" viewBox="0 0 33 32" fill="none" xmlns="http://www.w3.org/2000/svg">
<path d="M16.4694 0.82843C7.83135 0.82843 0.826843 7.7928 0.826843 16.384C0.826843 23.257 5.30889 29.0879 11.5242 31.1448C12.3059 31.2888 12.593 30.8074 12.593 30.3965C12.593 30.0256 12.5784 28.8001 12.5718 27.5003C8.21988 28.4413 7.30161 25.665 7.30161 25.665C6.59006 23.8669 5.56481 23.3889 5.56481 23.3889C4.14563 22.4234 5.67179 22.4432 5.67179 22.4432C7.2426 22.553 8.06972 24.0463 8.06972 24.0463C9.46486 26.4244 11.7291 25.7368 12.6217 25.3395C12.762 24.3339 13.1675 23.6478 13.6148 23.2594C10.1405 22.8659 6.48799 21.5321 6.48799 15.5716C6.48799 13.8734 7.09906 12.4857 8.09978 11.3963C7.93735 11.0045 7.40196 9.42236 8.25129 7.27967C8.25129 7.27967 9.56484 6.86158 12.5541 8.87421C13.8018 8.52944 15.14 8.35669 16.4694 8.35083C17.7987 8.35669 19.1379 8.52944 20.3881 8.87421C23.3738 6.86158 24.6855 7.27967 24.6855 7.27967C25.5369 9.42236 25.0013 11.0045 24.8388 11.3963C25.8417 12.4857 26.4487 13.8733 26.4487 15.5716C26.4487 21.5462 22.7893 22.8619 19.3061 23.2469C19.8672 23.7297 20.3671 24.6764 20.3671 26.1276C20.3671 28.2089 20.3489 29.8841 20.3489 30.3965C20.3489 30.8104 20.6305 31.2955 21.4235 31.1428C27.6354 29.0835 32.1118 23.2547 32.1118 16.384C32.1118 7.7928 25.1082 0.82843 16.4694 0.82843Z" fill="#161614"/>
</svg>
