<svg width="32" height="32" viewBox="0 0 32 32" fill="none" xmlns="http://www.w3.org/2000/svg">
<path d="M31.2109 15.6185L29.8975 14.8099C29.8864 14.683 29.874 14.5562 29.8601 14.4295L30.9888 13.3826C31.0453 13.3304 31.0873 13.2648 31.111 13.1919C31.1346 13.1189 31.1391 13.0412 31.1239 12.9661C31.109 12.891 31.0751 12.8208 31.0252 12.7624C30.9754 12.7041 30.9113 12.6594 30.8391 12.6326L29.3962 12.0961C29.36 11.9722 29.3223 11.8487 29.2832 11.7257L30.1832 10.4826C30.2283 10.4204 30.2567 10.3478 30.2656 10.2717C30.2746 10.1956 30.2638 10.1185 30.2343 10.0477C30.2048 9.97691 30.1576 9.91478 30.0972 9.86723C30.0368 9.81967 29.9652 9.78827 29.8891 9.776L28.3676 9.52991C28.3085 9.41519 28.2469 9.30217 28.1848 9.19012L28.8241 7.79461C28.8562 7.72498 28.8699 7.64829 28.8638 7.5719C28.8576 7.49551 28.8318 7.42197 28.7889 7.35833C28.7463 7.29448 28.6879 7.2426 28.6193 7.20766C28.5508 7.17271 28.4743 7.15588 28.3973 7.15878L26.8531 7.21225C26.7734 7.11292 26.692 7.01483 26.6092 6.91803L26.9641 5.42227C26.9818 5.34767 26.9801 5.26979 26.959 5.19606C26.9379 5.12233 26.8982 5.05519 26.8436 5.00105C26.7891 4.94686 26.7217 4.9074 26.6476 4.88643C26.5735 4.86546 26.4952 4.86367 26.4203 4.88123L24.9165 5.23378C24.8189 5.15147 24.7201 5.07061 24.62 4.99121L24.674 3.45571C24.6769 3.37916 24.66 3.30315 24.6249 3.23495C24.5899 3.16676 24.5378 3.10866 24.4736 3.06621C24.4096 3.02358 24.3357 2.99796 24.2589 2.9918C24.1821 2.98563 24.105 2.99911 24.0349 3.03097L22.632 3.66704C22.5188 3.60493 22.4049 3.54416 22.2903 3.48475L22.0422 1.97149C22.0298 1.89592 21.9982 1.82476 21.9504 1.76475C21.9025 1.70474 21.8401 1.65787 21.769 1.62857C21.6978 1.59928 21.6204 1.58853 21.5439 1.59735C21.4674 1.60617 21.3944 1.63426 21.3319 1.67897L20.081 2.57402C19.958 2.53513 19.8342 2.49758 19.7093 2.46197L19.1697 1.02685C19.1429 0.954955 19.098 0.891105 19.0392 0.841403C18.9805 0.791701 18.9099 0.757808 18.8343 0.742962C18.7588 0.72819 18.6808 0.732779 18.6076 0.756294C18.5344 0.77981 18.4684 0.821479 18.4158 0.877372L17.363 2.00065C17.2357 1.98646 17.1082 1.97407 16.9805 1.96347L16.1675 0.657042C16.127 0.591943 16.0704 0.538215 16.0032 0.500955C15.9359 0.463695 15.8602 0.444138 15.7832 0.444138C15.7062 0.444138 15.6305 0.463695 15.5633 0.500955C15.496 0.538215 15.4394 0.591943 15.3989 0.657042L14.5859 1.96347C14.4581 1.97405 14.3305 1.98645 14.203 2.00065L13.15 0.877372C13.0975 0.821271 13.0314 0.779459 12.9581 0.755914C12.8848 0.732369 12.8066 0.727874 12.7311 0.742857C12.6555 0.757839 12.585 0.791801 12.5264 0.841511C12.4678 0.89122 12.4229 0.955024 12.3961 1.02685L11.8566 2.46197C11.7316 2.49758 11.608 2.53538 11.4845 2.57402L10.2339 1.67897C10.1714 1.63406 10.0984 1.60584 10.0218 1.59701C9.94521 1.58817 9.86763 1.59903 9.79648 1.62854C9.72539 1.6579 9.66301 1.7048 9.61522 1.76481C9.56742 1.82481 9.53581 1.89595 9.52335 1.97149L9.27527 3.48475C9.1604 3.54394 9.04687 3.60482 8.93358 3.66704L7.53053 3.03084C7.46049 2.99897 7.38342 2.98549 7.30665 2.99168C7.22989 2.99787 7.156 3.02353 7.09205 3.06621C7.02788 3.10863 6.97573 3.16672 6.9406 3.23491C6.90546 3.30311 6.88852 3.37913 6.89138 3.45571L6.94516 4.99121C6.84525 5.07076 6.74642 5.15162 6.64868 5.23378L5.14493 4.88135C5.06992 4.86387 4.99166 4.86569 4.91755 4.88663C4.84344 4.90758 4.77592 4.94696 4.72136 5.00105C4.66678 5.05519 4.62705 5.12233 4.60596 5.19606C4.58487 5.26979 4.58311 5.34767 4.60086 5.42227L4.95514 6.91803C4.8729 7.01489 4.79163 7.11296 4.71183 7.21225L3.16762 7.15878C3.09072 7.15637 3.01446 7.1734 2.94598 7.20827C2.87751 7.24315 2.81904 7.29474 2.77607 7.35821C2.73322 7.42188 2.70746 7.49539 2.70124 7.57175C2.69501 7.64811 2.70853 7.72479 2.74051 7.79449L3.38014 9.19012C3.31794 9.30217 3.25647 9.41519 3.19683 9.52991L1.67548 9.776C1.59946 9.78833 1.52786 9.81977 1.46748 9.86734C1.4071 9.9149 1.35994 9.97702 1.33047 10.0478C1.30101 10.1186 1.29021 10.1957 1.29911 10.2718C1.30801 10.3478 1.33631 10.4204 1.38133 10.4826L2.28138 11.7258C2.24228 11.8485 2.20427 11.9718 2.16834 12.0961L0.725324 12.6326C0.653259 12.6596 0.589295 12.7043 0.539484 12.7627C0.489673 12.8211 0.455663 12.8911 0.440674 12.9662C0.425685 13.0413 0.430212 13.1189 0.453826 13.1918C0.47744 13.2647 0.519361 13.3303 0.575621 13.3826L1.70444 14.4294C1.69039 14.5558 1.67793 14.6831 1.66717 14.8099L0.353571 15.6185C0.288119 15.6588 0.234113 15.715 0.196682 15.7819C0.159252 15.8488 0.13964 15.9241 0.13971 16.0007C0.13971 16.1567 0.220733 16.3012 0.353694 16.3826L1.66717 17.1911C1.67793 17.3184 1.69039 17.4454 1.70444 17.5717L0.575499 18.6189C0.519139 18.671 0.477129 18.7367 0.453459 18.8096C0.429788 18.8824 0.425243 18.9601 0.440254 19.0352C0.455265 19.1104 0.489335 19.1804 0.539228 19.2387C0.58912 19.2971 0.65318 19.3418 0.725324 19.3686L2.16834 19.9051C2.20427 20.0293 2.24228 20.1527 2.28138 20.2754L1.38133 21.5188C1.33623 21.5809 1.30787 21.6535 1.29895 21.7296C1.29003 21.8057 1.30084 21.8829 1.33036 21.9537C1.35988 22.0244 1.40712 22.0866 1.46759 22.1341C1.52807 22.1816 1.59976 22.2129 1.67585 22.2251L3.19695 22.4712C3.25647 22.5859 3.31745 22.6989 3.38026 22.8114L2.74051 24.2066C2.70847 24.2763 2.69492 24.353 2.70115 24.4293C2.70737 24.5057 2.73317 24.5792 2.77607 24.6429C2.81873 24.7066 2.87713 24.7585 2.94569 24.7934C3.01424 24.8283 3.09066 24.8451 3.16762 24.8423L4.7111 24.7886C4.79163 24.8884 4.87265 24.9862 4.95514 25.0834L4.60086 26.5794C4.58313 26.6539 4.58489 26.7316 4.60598 26.8052C4.62708 26.8788 4.6668 26.9458 4.72136 26.9998C4.77576 27.0541 4.84329 27.0936 4.91745 27.1145C4.99162 27.1354 5.06995 27.1371 5.14493 27.1192L6.64868 26.7671C6.74645 26.8497 6.84543 26.9299 6.94528 27.0089L6.89151 28.5449C6.88873 28.6214 6.90569 28.6974 6.94077 28.7656C6.97586 28.8337 7.02789 28.8919 7.09194 28.9344C7.15598 28.9769 7.2299 29.0025 7.30667 29.0086C7.38344 29.0147 7.4605 29.0011 7.53053 28.9693L8.93358 28.3335C9.04655 28.396 9.16046 28.4567 9.27527 28.5157L9.52335 30.0281C9.53561 30.1038 9.56714 30.1751 9.61495 30.2352C9.66277 30.2953 9.72526 30.3422 9.79648 30.3714C9.86766 30.4008 9.94518 30.4115 10.0217 30.4028C10.0983 30.394 10.1713 30.3659 10.2339 30.3213L11.4839 29.4256C11.6073 29.4645 11.7314 29.5025 11.8563 29.5383L12.3958 30.9728C12.4227 31.0446 12.4676 31.1083 12.5263 31.1579C12.585 31.2075 12.6556 31.2413 12.7312 31.256C12.8067 31.2712 12.8848 31.2668 12.9581 31.2433C13.0314 31.2197 13.0974 31.1778 13.1497 31.1216L14.2028 29.999C14.3299 30.0135 14.4577 30.0257 14.5856 30.037L15.3987 31.3432C15.4392 31.4082 15.4958 31.4618 15.563 31.499C15.6302 31.5362 15.7059 31.5558 15.7828 31.5559C15.8597 31.5558 15.9354 31.5363 16.0027 31.4991C16.0699 31.4619 16.1265 31.4082 16.1671 31.3432L16.9802 30.037C17.1081 30.0257 17.2358 30.0135 17.3628 29.999L18.4156 31.1216C18.4679 31.1778 18.5339 31.2196 18.6072 31.2432C18.6804 31.2667 18.7586 31.2711 18.834 31.256C18.9096 31.2412 18.9801 31.2074 19.0388 31.1578C19.0975 31.1082 19.1425 31.0445 19.1694 30.9728L19.7089 29.5383C19.8338 29.5025 19.958 29.4645 20.0814 29.4256L21.3317 30.3213C21.3942 30.366 21.4672 30.3941 21.5438 30.4028C21.6203 30.4116 21.6978 30.4008 21.7689 30.3715C21.8401 30.3421 21.9025 30.2951 21.9503 30.2351C21.9981 30.175 22.0296 30.1037 22.042 30.0281L22.29 28.5157C22.4048 28.4565 22.5183 28.395 22.6316 28.3334L24.0347 28.9693C24.1047 29.0012 24.1818 29.0148 24.2586 29.0088C24.3354 29.0027 24.4094 28.9772 24.4735 28.9347C24.5375 28.8921 24.5896 28.8339 24.6247 28.7657C24.6597 28.6975 24.6767 28.6215 24.6738 28.5449L24.62 27.009C24.72 26.9299 24.8187 26.8493 24.9161 26.7671L26.42 27.1192C26.5728 27.155 26.7329 27.1107 26.8432 26.9998C26.8978 26.9458 26.9375 26.8788 26.9586 26.8052C26.9797 26.7316 26.9814 26.6539 26.9637 26.5794L26.6096 25.0834C26.692 24.9862 26.7733 24.8884 26.8527 24.7886L28.397 24.8423C28.4739 24.8452 28.5503 24.8284 28.6189 24.7935C28.6875 24.7586 28.7459 24.7068 28.7885 24.643C28.8315 24.5793 28.8573 24.5057 28.8635 24.4293C28.8697 24.3529 28.856 24.2761 28.8238 24.2065L28.1844 22.8116C28.2469 22.6989 28.3082 22.5859 28.3674 22.4713L29.8888 22.2251C29.9649 22.2129 30.0366 22.1816 30.097 22.134C30.1573 22.0864 30.2044 22.0242 30.2337 21.9533C30.2632 21.8826 30.274 21.8056 30.2652 21.7295C30.2563 21.6534 30.228 21.5809 30.183 21.5188L29.2829 20.2755C29.3218 20.1527 29.3598 20.0293 29.396 19.9051L30.8388 19.3686C30.911 19.3418 30.9751 19.2971 31.025 19.2387C31.0749 19.1803 31.1088 19.1102 31.1236 19.035C31.1388 18.9599 31.1344 18.8822 31.1107 18.8093C31.0871 18.7365 31.045 18.6709 30.9885 18.6189L29.8599 17.5717C29.8736 17.4453 29.8862 17.3181 29.8972 17.1913L31.2106 16.3826C31.2761 16.3424 31.3302 16.2862 31.3676 16.2193C31.4051 16.1525 31.4247 16.0772 31.4246 16.0007C31.4246 15.845 31.344 15.7002 31.2109 15.6185ZM22.4203 26.4534C21.9188 26.3458 21.5998 25.8543 21.7075 25.3539C21.8148 24.8542 22.3087 24.5362 22.8102 24.6437C23.3117 24.7505 23.6311 25.243 23.5236 25.7423C23.416 26.2418 22.9216 26.5602 22.4203 26.4534ZM21.974 23.4518C21.8652 23.4286 21.7528 23.4269 21.6434 23.4469C21.5339 23.4669 21.4295 23.5082 21.336 23.5684C21.2426 23.6286 21.1621 23.7065 21.099 23.7977C21.0358 23.8888 20.9914 23.9915 20.9683 24.0998L20.5019 26.2638C19.0629 26.9132 17.4651 27.2741 15.7822 27.2741C14.0608 27.2741 12.4281 26.8954 10.9636 26.2182L10.4975 24.0543C10.3994 23.5989 9.94924 23.3089 9.49194 23.4066L7.57085 23.8168C7.21382 23.4514 6.88197 23.0624 6.57756 22.6526H15.9251C16.0309 22.6526 16.1014 22.6335 16.1014 22.5378V19.2496C16.1014 19.1539 16.0309 19.1349 15.925 19.1349H13.1914V17.0507H16.1482C16.418 17.0507 17.5913 17.1272 17.9664 18.6186C18.0839 19.0773 18.3418 20.5691 18.5183 21.0467C18.694 21.5824 19.4095 22.6525 20.1721 22.6525H24.83C24.8829 22.6525 24.9394 22.6465 24.9989 22.6358C24.6757 23.0723 24.3217 23.4853 23.9395 23.8718L21.9741 23.4518H21.974ZM9.04577 26.4082C8.54411 26.5159 8.05027 26.1978 7.94236 25.6981C7.83506 25.1975 8.15402 24.7062 8.65556 24.5986C9.15722 24.4919 9.6513 24.81 9.75884 25.3096C9.86614 25.809 9.54694 26.3012 9.04564 26.4082H9.04577ZM5.49969 12.1092C5.70781 12.5761 5.49603 13.1234 5.02712 13.33C4.55821 13.5372 4.00938 13.3263 3.80139 12.859C3.59327 12.3918 3.80493 11.8455 4.27396 11.6383C4.38552 11.5891 4.50573 11.5622 4.62774 11.5593C4.74974 11.5563 4.87113 11.5773 4.98497 11.621C5.09881 11.6647 5.20287 11.7304 5.29119 11.8141C5.37951 11.8979 5.45036 11.9981 5.49969 12.1091V12.1092ZM4.40986 14.6783L6.41111 13.794C6.61656 13.7031 6.77731 13.5348 6.85807 13.3261C6.93882 13.1174 6.93296 12.8854 6.84177 12.681L6.42969 11.7542H8.05064V19.0201H4.78026C4.49037 18.0053 4.3437 16.9553 4.34448 15.9003C4.34448 15.4873 4.36684 15.0792 4.40986 14.6782V14.6783ZM13.1919 13.9726V11.8309H17.0519C17.2513 11.8309 18.4597 12.0601 18.4597 12.9587C18.4597 13.7048 17.5329 13.9722 16.7707 13.9722H13.1919V13.9726ZM27.2202 15.9003C27.2202 16.1844 27.2097 16.4656 27.1888 16.7447H26.0153C25.8978 16.7447 25.8505 16.8215 25.8505 16.9358V17.4718C25.8505 18.7332 25.1353 19.0076 24.5085 19.0775C23.9116 19.1443 23.2497 18.829 23.1682 18.4657C22.816 16.4963 22.2293 16.0756 21.3027 15.3488C22.4527 14.6227 23.6491 13.5514 23.6491 12.1174C23.6491 10.5691 22.5817 9.59383 21.8541 9.11562C20.8335 8.44649 19.7033 8.31232 19.3984 8.31232H7.26179C8.90755 6.48576 11.1381 5.19185 13.6608 4.72105L15.0913 6.21342C15.1681 6.29352 15.26 6.35779 15.3617 6.40253C15.4635 6.44728 15.5731 6.47162 15.6844 6.47417C15.7956 6.47673 15.9062 6.45743 16.01 6.4174C16.1137 6.37737 16.2085 6.31738 16.2888 6.24088L17.8895 4.71838C21.2435 5.33939 24.0832 7.41557 25.7196 10.2641L24.6238 12.7254C24.4346 13.1513 24.6277 13.6495 25.0548 13.8382L27.1646 14.7701C27.201 15.1426 27.2202 15.5188 27.2202 15.9003ZM15.0919 3.45145C15.4626 3.09841 16.0505 3.11239 16.4054 3.48147C16.7596 3.85164 16.7461 4.43692 16.3746 4.78972C16.004 5.14288 15.416 5.12914 15.0611 4.75934C14.8911 4.5817 14.7988 4.34425 14.8046 4.09906C14.8104 3.85387 14.9137 3.62098 15.0919 3.45145ZM25.9663 12.1541C26.0156 12.0431 26.0864 11.9428 26.1747 11.8591C26.263 11.7754 26.367 11.7098 26.4809 11.6661C26.5947 11.6223 26.7161 11.6014 26.8381 11.6044C26.96 11.6074 27.0802 11.6343 27.1917 11.6835C27.6608 11.8903 27.8724 12.4373 27.6643 12.9043C27.615 13.0153 27.5442 13.1156 27.4559 13.1994C27.3676 13.2832 27.2635 13.3488 27.1497 13.3925C27.0358 13.4363 26.9144 13.4573 26.7924 13.4543C26.6704 13.4513 26.5501 13.4244 26.4386 13.3752C25.9702 13.1682 25.7585 12.6217 25.9663 12.1541Z" fill="black"/>
</svg>
