<svg width="32" height="28" viewBox="0 0 32 28" fill="none" xmlns="http://www.w3.org/2000/svg">
<path d="M30.3366 21.1781C28.6763 22.0435 20.0756 25.5798 18.2445 26.5344C16.4134 27.4892 15.3962 27.4799 13.9497 26.7884C12.5033 26.0969 3.35054 22.3998 1.70177 21.6117C0.877811 21.218 0.444443 20.8855 0.444443 20.5714V17.4268C0.444443 17.4268 12.3602 14.8328 14.2839 14.1426C16.2074 13.4525 16.8749 13.4275 18.5119 14.0272C20.1491 14.627 29.9377 16.3931 31.5556 16.9856L31.5548 20.0858C31.5551 20.3967 31.1817 20.7377 30.3366 21.1781Z" fill="#912626"/>
<path d="M30.336 18.052C28.6758 18.9171 20.0753 22.4535 18.2443 23.408C16.4133 24.3628 15.3961 24.3535 13.9497 23.662C12.5032 22.971 3.35078 19.2733 1.70214 18.4856C0.0534911 17.6975 0.0189772 17.1552 1.63846 16.521C3.25794 15.8867 12.3601 12.3156 14.284 11.6254C16.2076 10.9355 16.8749 10.9103 18.5119 11.5102C20.149 12.1098 28.6982 15.5127 30.3159 16.1052C31.9341 16.6983 31.9962 17.1868 30.336 18.052Z" fill="#C6302B"/>
<path d="M30.3366 16.0899C28.6763 16.9554 20.0756 20.4916 18.2445 21.4466C16.4134 22.4009 15.3962 22.3917 13.9497 21.7002C12.5032 21.0091 3.35054 17.3116 1.70177 16.5235C0.877811 16.1297 0.444443 15.7977 0.444443 15.4836V12.3385C0.444443 12.3385 12.3602 9.74464 14.2839 9.05449C16.2074 8.36433 16.8749 8.3393 18.5119 8.93904C20.1492 9.53878 29.9378 11.3045 31.5556 11.8971L31.5548 14.9977C31.5551 15.3084 31.1817 15.6494 30.3366 16.0899Z" fill="#912626"/>
<path d="M30.336 12.9638C28.6758 13.8291 20.0753 17.3653 18.2443 18.3201C16.4133 19.2746 15.3961 19.2653 13.9497 18.5738C12.5032 17.8828 3.35078 14.1851 1.70214 13.3974C0.0534911 12.6095 0.0189772 12.067 1.63846 11.4327C3.25794 10.7987 12.3602 7.22732 14.284 6.53728C16.2076 5.84725 16.8749 5.82221 18.5119 6.42195C20.149 7.02157 28.6982 10.4242 30.3159 11.0169C31.9341 11.61 31.9962 12.0985 30.336 12.9638Z" fill="#C6302B"/>
<path d="M30.3366 10.813C28.6763 11.6783 20.0756 15.2147 18.2445 16.1697C16.4134 17.1242 15.3962 17.1148 13.9497 16.4233C12.5032 15.7322 3.35054 12.0346 1.70177 11.2469C0.877811 10.8527 0.444443 10.5206 0.444443 10.2068V7.06168C0.444443 7.06168 12.3602 4.46791 14.2839 3.77787C16.2074 3.0876 16.8749 3.0628 18.5119 3.66242C20.1492 4.26216 29.9378 6.02784 31.5556 6.62053L31.5548 9.72096C31.5551 10.0315 31.1817 10.3725 30.3366 10.813Z" fill="#912626"/>
<path d="M30.336 7.68694C28.6758 8.55222 20.0753 12.0887 18.2442 13.0432C16.4133 13.9976 15.3961 13.9883 13.9497 13.2972C12.5033 12.6057 3.35078 8.9083 1.70225 8.12043C0.0534839 7.33269 0.0190915 6.79007 1.63845 6.15581C3.25793 5.52168 12.3602 1.95083 14.284 1.26055C16.2076 0.570392 16.8749 0.5456 18.5119 1.14534C20.149 1.74508 28.6982 5.14774 30.3158 5.74043C31.9341 6.333 31.9962 6.82166 30.336 7.68694Z" fill="#C6302B"/>
<path d="M19.8018 4.62771L17.1269 4.90541L16.5282 6.34624L15.5611 4.73843L12.4724 4.46086L14.7771 3.62973L14.0856 2.35393L16.2433 3.19782L18.2775 2.53185L17.7277 3.85103L19.8018 4.62771ZM16.3685 11.6177L11.3765 9.54727L18.5296 8.44927L16.3685 11.6177ZM9.44747 5.42858C11.559 5.42858 13.2707 6.09212 13.2707 6.91049C13.2707 7.7291 11.559 8.39252 9.44747 8.39252C7.33592 8.39252 5.6242 7.72898 5.6242 6.91049C5.6242 6.09212 7.33592 5.42858 9.44747 5.42858Z" fill="white"/>
<path d="M22.9629 5.02159L27.1965 6.69454L22.9666 8.36592L22.9629 5.02147" fill="#621B1C"/>
<path d="M18.2793 6.87429L22.9629 5.02159L22.9666 8.36593L22.5073 8.54555L18.2793 6.87429Z" fill="#9A2928"/>
</svg>
